<svg width="486" height="390" viewBox="0 0 486 390" fill="none" xmlns="http://www.w3.org/2000/svg">
<path d="M90.0071 140.8C83.8968 157.371 80.5401 174.078 80.3311 191.387C80.2532 197.835 80.076 198.061 73.4496 198.019C66.4577 197.974 59.4595 197.458 52.4786 197.658C48.1211 197.782 47.1385 196.036 47.2215 192.074C47.6578 171.263 50.8137 150.841 58.3759 131.502C85.5296 62.0583 135.04 17.5709 208.698 3.61557C269.181 -7.8435 323.523 8.16107 370.331 48.4251C407.66 80.5352 428.829 121.535 436.315 169.913C437.541 177.839 437.402 185.846 437.842 193.82C438.002 196.726 436.589 197.545 433.928 197.568C426.436 197.632 418.937 197.708 411.456 198.081C406.713 198.317 405.26 196.542 405.091 191.743C403.149 136.512 379.133 92.8797 334.056 61.4461C302.23 39.252 266.126 29.1701 227.518 33.8644C163.843 41.6064 118.733 75.6853 92.4791 134.388C91.5978 136.358 90.928 138.424 90.0071 140.8Z" fill="#FF7F08"/>
<path d="M110.793 289.569C135.323 322.062 166.979 343.807 206.311 352.409C266.274 365.521 317.865 348.604 360.762 305.026C380.095 285.386 393.083 261.977 400.087 235.329C401.163 231.236 402.992 229.571 407.327 229.778C414.643 230.128 421.987 230.036 429.316 229.911C433.382 229.841 434.506 231.281 433.69 235.342C428.141 262.944 416.631 287.852 399.607 310.141C367.464 352.223 325.249 378.078 273.038 387.156C243.637 392.268 214.514 389.967 186.237 380.705C121.938 359.643 78.7807 316.703 56.1616 253.033C53.9876 246.913 52.7741 240.52 51.4492 234.164C50.8961 231.511 51.7048 230.333 54.3374 230.32C62.6575 230.279 70.9786 230.317 79.2972 230.185C82.6672 230.132 84.3694 231.506 85.1892 234.833C90.0684 254.639 98.7839 272.685 110.793 289.569Z" fill="#FF7F08"/>
<path d="M143.319 206.428C145.619 202.128 147.758 198.17 149.797 194.162C151.031 191.737 152.172 189.191 155.42 189.234C159.017 189.282 160.545 191.836 161.672 194.798C163.271 198.999 164.924 203.18 166.561 207.367C166.982 208.445 167.434 209.506 169.047 210.201C171.652 203.329 172.352 196.206 173.811 189.289C177.86 170.101 181.796 150.889 185.634 131.658C186.364 128.001 187.54 125.147 191.807 125.282C196.053 125.416 196.687 128.847 197.17 131.977C199.704 148.4 202.098 164.845 204.575 181.276C208.338 206.239 212.13 231.197 216.451 256.165C219.971 248.154 220.916 239.62 222.807 231.334C224.063 225.825 224.995 220.242 226.022 214.683C226.911 209.867 230.244 208.855 234.507 208.871C250.838 208.936 267.173 208.722 283.499 209.027C288.281 209.117 290.351 207.262 291.602 202.976C294.633 192.594 297.961 182.299 301.173 171.971C302.138 168.867 303.137 165.77 307.288 165.883C311.617 166 312.644 169.163 313.399 172.569C317.355 190.413 321.314 208.256 325.276 226.098C325.623 227.659 325.579 229.431 327.706 230.588C330.356 226.67 330.808 222.156 332.03 217.965C334.553 209.311 335.009 208.902 344.137 208.906C379.466 208.925 414.795 208.902 450.124 208.996C453.83 209.006 456.504 208.414 458.905 204.945C463.808 197.863 474.591 197.273 481.012 203.145C487.096 208.709 487.137 220.038 481.093 225.645C474.749 231.531 464.219 230.689 459.035 223.404C456.757 220.203 454.25 219.416 450.651 219.476C416.007 220.056 381.359 220.382 346.711 219.894C343.574 219.85 342.737 221.429 342.021 223.869C338.881 234.566 335.632 245.23 332.488 255.925C331.572 259.045 330.213 261.481 326.454 261.452C322.544 261.422 321.533 258.709 320.853 255.597C316.91 237.564 312.937 219.537 309.019 201.499C308.597 199.559 308.17 197.682 307.099 196.14C304.784 196.397 304.664 198.028 304.188 199.415C302.729 203.666 301.238 207.907 299.759 212.152C297.156 219.623 296.716 220.063 288.647 220.095C273.316 220.156 257.98 220.25 242.655 219.921C237.685 219.814 235.6 221.486 234.687 226.33C230.781 247.072 226.568 267.756 222.454 288.458C222.195 289.762 221.848 291.051 221.504 292.337C220.712 295.29 218.741 296.953 215.718 296.857C212.885 296.767 211.104 295.05 210.618 292.236C209.344 284.869 208.031 277.507 206.921 270.114C201.861 236.421 196.866 202.718 191.851 169.018C191.729 168.199 191.715 167.342 190.786 166.774C189.027 168.013 188.806 169.932 188.411 171.877C184.449 191.427 180.425 210.965 176.407 230.504C176.24 231.316 175.972 232.109 175.726 232.903C174.928 235.485 172.93 236.561 170.466 236.838C167.942 237.122 166.358 235.659 165.448 233.504C162.92 227.522 160.495 221.496 157.989 215.504C157.238 213.708 156.355 211.968 155.597 210.34C153.707 210.578 153.115 211.798 152.779 212.757C150.445 219.416 145.176 220.129 139.151 220.116C104.489 220.045 69.8258 220.152 35.1635 220.082C31.4351 220.075 28.6695 220.562 26.4218 224.184C23.4808 228.923 16.4155 230.618 10.7188 228.867C4.35563 226.912 0.543923 221.846 0.0337919 214.666C-0.374106 208.925 2.9434 203.378 8.21769 200.983C15.588 197.635 22.5587 199.181 27.2375 205.721C29.0557 208.262 31.0652 208.984 33.9338 208.981C68.2629 208.945 102.592 208.982 136.921 208.973C139.215 208.973 141.704 209.304 143.319 206.428Z" fill="#FF7F08"/>
<path d="M229.074 89.248C229.186 81.9134 229.186 81.9024 236.156 81.8757C241.482 81.8553 246.811 81.9576 252.135 81.8319C255.374 81.7554 256.609 83.1825 256.53 86.3227C256.422 90.6477 256.763 94.9945 256.465 99.3011C256.154 103.796 258.055 105.213 262.299 104.933C266.277 104.671 270.286 104.93 274.28 104.86C277.171 104.809 278.56 105.992 278.518 109.004C278.437 114.828 278.399 120.659 278.573 126.48C278.671 129.753 277.113 131.034 274.135 131.069C270.307 131.115 266.466 131.29 262.655 131.038C258.039 130.733 255.829 132.262 256.277 137.23C256.619 141.028 256.246 144.886 256.419 148.708C256.567 151.992 255.532 153.666 251.933 153.584C245.611 153.439 239.281 153.492 232.959 153.632C230.156 153.694 229.004 152.534 229.039 149.817C229.092 145.656 228.82 141.477 229.121 137.338C229.445 132.892 228.069 130.851 223.29 131.227C219.157 131.553 214.974 131.239 210.813 131.206C208.154 131.185 206.906 129.911 206.934 127.185C206.995 121.026 206.986 114.867 206.908 108.709C206.873 105.965 208.071 104.781 210.796 104.824C214.956 104.889 219.131 104.622 223.277 104.871C227.515 105.125 229.513 103.694 229.14 99.2137C228.879 96.0722 229.078 92.8924 229.074 89.248Z" fill="#FF7F08"/>
<path d="M136.346 132.839C134.175 136.962 131.14 137.238 127.755 135.394C123.515 133.084 119.343 130.643 115.218 128.133C112.372 126.402 111.637 123.805 113.041 120.801C114.41 117.874 117.121 117.08 119.779 118.177C125.158 120.399 130.245 123.279 134.808 126.951C136.53 128.337 136.77 130.342 136.346 132.839Z" fill="#FF7F08"/>
<path d="M245.364 318.838C247.459 320.338 248.105 322.235 248.17 324.249C248.321 328.876 248.425 333.513 248.301 338.14C248.213 341.452 246.62 344.086 243.046 344.232C239.271 344.387 237.251 341.977 237.128 338.324C236.967 333.533 236.883 328.72 237.169 323.94C237.448 319.294 240.057 317.709 245.364 318.838Z" fill="#FF7F08"/>
<path d="M123.514 257.332C125.717 256.1 127.504 254.777 129.509 254.094C132.123 253.204 134.548 254.019 135.89 256.567C137.179 259.015 136.942 261.536 134.648 263.292C130.159 266.729 125.302 269.659 120.175 271.999C117.416 273.258 114.553 272.697 112.875 269.664C111.139 266.526 112.511 264.201 115.118 262.456C117.737 260.703 120.496 259.16 123.514 257.332Z" fill="#FF7F08"/>
<path d="M165.447 69.1704C168.31 63.5282 173.18 63.1173 176.101 68.1036C178.621 72.4054 180.852 76.895 182.929 81.4308C184.271 84.3643 183.556 86.9993 180.457 88.5832C177.559 90.0644 175.014 89.2233 173.591 86.5915C170.597 81.0548 166.952 75.8019 165.447 69.1704Z" fill="#FF7F08"/>
<path d="M248.154 62.7789C248.187 67.2506 247.278 70.9711 242.389 70.7397C237.647 70.5153 236.871 66.7802 236.965 62.774C237.051 59.1264 236.973 55.4752 237.033 51.8267C237.093 48.2849 238.451 45.413 242.327 45.2504C246.626 45.07 247.897 48.2264 248.051 51.8763C248.198 55.3542 248.118 58.8416 248.154 62.7789Z" fill="#FF7F08"/>
<path d="M167.082 314.183C168.965 310.604 170.562 307.303 172.4 304.143C174.26 300.947 177.07 299.74 180.396 301.771C183.491 303.66 183.699 306.49 182.031 309.58C180.214 312.947 178.523 316.382 176.649 319.715C173.952 324.512 170.706 326.152 167.606 324.132C163.327 321.343 165.116 317.88 167.082 314.183Z" fill="#FF7F08"/>
<path d="M319.143 73.7457C316.973 77.9314 315.108 81.8416 312.971 85.5975C311.356 88.4376 308.917 90.3484 305.553 88.5066C302.267 86.7074 301.555 83.8358 303.339 80.4335C305.348 76.6022 307.299 72.7406 309.304 68.9069C311.071 65.5262 313.845 63.6887 317.487 65.3516C321.134 67.017 321.034 70.1797 319.143 73.7457Z" fill="#FF7F08"/>
<path d="M359.961 255.15C363.665 257.469 367.125 259.487 370.39 261.782C372.876 263.53 374.524 266.022 372.771 269.061C370.925 272.261 367.935 272.31 364.935 270.732C361.253 268.794 357.607 266.773 354.044 264.624C350.734 262.627 347.678 260.074 350.155 255.785C352.672 251.426 356.259 252.903 359.961 255.15Z" fill="#FF7F08"/>
<path d="M392.422 192.392C392.845 196.286 391.184 198.234 387.801 198.462C383.024 198.784 378.23 199.029 373.445 198.999C370.094 198.979 367.576 197.222 367.445 193.66C367.31 189.97 369.956 188.33 373.226 188.163C377.842 187.927 382.484 187.987 387.106 188.166C389.533 188.26 391.578 189.369 392.422 192.392Z" fill="#FF7F08"/>
<path d="M307.993 300.857C310.78 301.216 312.171 302.874 313.242 304.772C315.438 308.663 317.569 312.592 319.609 316.566C320.92 319.12 321.325 321.795 318.411 323.54C315.68 325.176 312.717 324.929 310.846 322.3C307.49 317.581 304.59 312.479 302.762 306.998C301.558 303.385 303.495 300.951 307.993 300.857Z" fill="#FF7F08"/>
<path d="M350.176 132.767C350.023 131.549 349.81 130.678 350.003 129.909C350.945 126.168 365.522 117.745 369.327 118.667C371.289 119.143 372.462 120.46 373.089 122.282C373.823 124.417 373.281 126.387 371.434 127.554C366.825 130.465 362.192 133.374 357.354 135.868C354.416 137.383 351.905 136.027 350.176 132.767Z" fill="#FF7F08"/>
<path d="M117.173 197.29C115.971 198.93 114.637 199.468 113.052 199.468C107.905 199.468 102.758 199.492 97.6109 199.454C94.4406 199.431 92.4946 197.705 92.3956 194.621C92.301 191.672 93.8807 189.243 96.9877 189.069C102.447 188.765 107.981 188.499 113.394 189.069C117.839 189.538 118.653 192.985 117.173 197.29Z" fill="#FF7F08"/>
</svg>
